<svg width="32" height="33" fill="none" xmlns="http://www.w3.org/2000/svg"><g clip-path="url(#a)"><path d="M32 16.269C32 7.442 24.836.285 16 .285S0 7.442 0 16.27c0 7.978 5.85 14.59 13.5 15.788V20.89H9.437v-4.622H13.5v-3.519c0-4.005 2.39-6.219 6.044-6.219 1.75 0 3.581.313 3.581.313v3.934h-2.018c-1.988 0-2.608 1.232-2.608 2.496v2.997h4.437l-.71 4.621H18.5V32.06C26.149 30.859 32 24.246 32 16.269Z" fill="#F7F7F7"/></g><defs><clipPath id="a"><path fill="#fff" transform="translate(0 .188)" d="M0 0h32v31.967H0z"/></clipPath></defs></svg>