<svg width="32" height="33" fill="none" xmlns="http://www.w3.org/2000/svg"><g clip-path="url(#a)"><path d="M16 .188c-4.347 0-4.89.02-6.596.095C7.7.363 6.54.631 5.52 1.027A7.836 7.836 0 0 0 2.685 2.87 7.798 7.798 0 0 0 .84 5.702C.444 6.72.175 7.879.096 9.582.016 11.287 0 11.829 0 16.17c0 4.342.02 4.884.096 6.589.08 1.7.348 2.861.744 3.88a7.838 7.838 0 0 0 1.845 2.832 7.825 7.825 0 0 0 2.835 1.843c1.021.394 2.181.665 3.884.743 1.707.08 2.25.096 6.596.096 4.347 0 4.89-.02 6.596-.096 1.703-.08 2.864-.349 3.884-.743a7.865 7.865 0 0 0 2.835-1.843 7.805 7.805 0 0 0 1.845-2.832c.395-1.019.665-2.18.744-3.88.08-1.705.096-2.247.096-6.59 0-4.341-.02-4.883-.096-6.588-.08-1.701-.35-2.863-.744-3.88a7.844 7.844 0 0 0-1.845-2.832 7.797 7.797 0 0 0-2.835-1.843C25.46.63 24.299.362 22.596.283 20.889.203 20.346.188 16 .188Zm0 2.876c4.27 0 4.78.022 6.467.095 1.56.073 2.406.332 2.969.553a4.97 4.97 0 0 1 1.843 1.193c.558.56.905 1.091 1.194 1.84.219.562.48 1.408.551 2.966.076 1.686.093 2.192.093 6.46 0 4.267-.02 4.775-.098 6.46-.082 1.558-.342 2.404-.562 2.966-.298.749-.638 1.279-1.198 1.84a4.993 4.993 0 0 1-1.84 1.194c-.56.219-1.42.48-2.98.55-1.699.076-2.199.093-6.479.093-4.281 0-4.781-.02-6.479-.098-1.561-.081-2.421-.341-2.981-.56-.759-.3-1.28-.639-1.839-1.198a4.853 4.853 0 0 1-1.2-1.838c-.22-.56-.478-1.419-.56-2.977-.06-1.678-.081-2.197-.081-6.452 0-4.257.021-4.777.081-6.475.082-1.558.34-2.416.56-2.975.28-.76.639-1.279 1.2-1.84.559-.558 1.08-.917 1.839-1.196.56-.22 1.401-.48 2.961-.56 1.7-.06 2.2-.08 6.479-.08l.06.04Zm0 4.9c-4.54 0-8.216 3.676-8.216 8.207 0 4.535 3.68 8.207 8.216 8.207 4.54 0 8.216-3.676 8.216-8.207 0-4.535-3.68-8.208-8.216-8.208Zm0 13.535a5.329 5.329 0 1 1 0-10.656A5.329 5.329 0 1 1 16 21.5Zm10.461-13.86a1.92 1.92 0 0 1-3.84 0 1.92 1.92 0 0 1 3.84 0Z" fill="#F7F7F7"/></g><defs><clipPath id="a"><path fill="#fff" transform="translate(0 .188)" d="M0 0h32v31.967H0z"/></clipPath></defs></svg>