<svg width="140" height="32" fill="none" xmlns="http://www.w3.org/2000/svg"><path d="M11.394 19.147v4.283c0 2.141-1.12 2.914-2.9 2.914-1.78 0-2.899-.773-2.899-2.914V7.239c0-2.142 1.12-2.956 2.9-2.956 1.78 0 2.899.814 2.899 2.956v3.212h5.29V7.54C16.684 2.74 13.835 0 8.342 0 2.848 0 0 2.741 0 7.539V23.13c0 4.798 2.848 7.54 8.342 7.54 5.493 0 8.342-2.742 8.342-7.54v-3.983h-5.29ZM32.503.343 38.2 30.327h-5.646l-.967-5.44h-6.866l-.967 5.44h-5.137L24.314.343h8.189Zm-4.425 5.31-2.645 15.165h5.391L28.18 5.653H28.078ZM58.19 30.328h-5.697c-.305-.772-.509-1.243-.509-3.685v-4.711c0-2.784-1.119-3.812-3.662-3.812h-1.933v12.208h-5.595V.343h8.444c5.798 0 8.29 2.27 8.29 6.897v2.355c0 3.084-1.17 5.054-3.662 6.04 2.798 1.07 3.713 3.297 3.713 6.425v4.626c0 1.456.051 2.527.61 3.64h.001ZM49.085 4.626h-2.696v9.21h2.187c2.086 0 3.357-.77 3.357-3.17V7.71c0-2.141-.864-3.083-2.848-3.083v-.001ZM75.242.343l5.697 29.984h-5.646l-.966-5.44H67.46l-.966 5.44h-5.138L67.053.343h8.19-.001Zm-4.425 5.31-2.645 15.165h5.392L70.919 5.653h-.102ZM86.115.344h-5.646l5.493 29.984h8.342L99.797.343H94.66L90.438 24.8h-.102L86.115.343Zm27.098 0 5.697 29.984h-5.646l-.966-5.44h-6.867l-.967 5.44h-5.137L105.024.343h8.189Zm-4.425 5.31-2.645 15.165h5.392L108.89 5.653h-.102Zm25.464 24.674H140V.343h-4.985V18.29h-.102L129.267.343h-7.019v29.984h5.036V8.609h.101l6.867 21.718Z" fill="#9C9C9C"/></svg>