<svg width="152" height="33" fill="none" xmlns="http://www.w3.org/2000/svg"><path fill-rule="evenodd" clip-rule="evenodd" d="M23.024 14.258h2.717c2.808 0 4.325 2.785 2.496 4.59l-2.66 2.623c.288 1.556 1.259 2.963 2.719 3.94 1.461.976 3.304 1.452 5.161 1.33 1.857-.12 3.592-.828 4.86-1.982 1.267-1.154 1.972-2.67 1.975-4.246 0-.274.063-.545.187-.798s.306-.483.535-.677c.229-.194.5-.347.8-.452.3-.104.62-.158.944-.157.654 0 1.28.22 1.743.61.463.391.723.921.724 1.474 0 2.188-.815 4.321-2.328 6.095-1.133 1.326-2.618 2.408-4.336 3.16a14.182 14.182 0 0 1-5.553 1.165 14.235 14.235 0 0 1-5.578-1.076c-1.735-.724-3.244-1.782-4.406-3.09-1.163 1.308-2.672 2.366-4.406 3.09a14.234 14.234 0 0 1-5.578 1.076 14.182 14.182 0 0 1-5.553-1.166c-1.718-.75-3.203-1.833-4.336-3.159C1.637 24.834.822 22.702.822 20.513c0-.274.063-.545.187-.798s.306-.484.535-.677c.23-.194.501-.347.8-.452.3-.104.621-.158.945-.157.654 0 1.28.22 1.743.61.463.391.723.921.724 1.474-.003 1.578.7 3.098 1.966 4.256.946.864 2.16 1.485 3.504 1.792a8.7 8.7 0 0 0 4.094-.057c1.33-.345 2.52-1 3.432-1.89.91-.89 1.507-1.98 1.72-3.144l-2.662-2.623c-1.828-1.804-.312-4.588 2.5-4.588h2.714v-.001Z" fill="#9C9C9C"/><path d="M34.535 8.699c.648 0 1.289-.107 1.887-.317a5.07 5.07 0 0 0 1.6-.903 4.202 4.202 0 0 0 1.07-1.354 3.623 3.623 0 0 0 .377-1.596c0-.548-.128-1.09-.376-1.597a4.202 4.202 0 0 0-1.07-1.353 5.07 5.07 0 0 0-1.6-.904A5.718 5.718 0 0 0 34.534.36c-.647 0-1.289.107-1.887.317a5.071 5.071 0 0 0-1.6.903 4.202 4.202 0 0 0-1.07 1.353 3.624 3.624 0 0 0-.376 1.597c0 .548.128 1.09.376 1.596s.612.966 1.07 1.353a5.071 5.071 0 0 0 1.6.904c.598.21 1.24.317 1.887.317Zm-23.023 0c.647 0 1.289-.108 1.887-.317a5.071 5.071 0 0 0 1.6-.904 4.202 4.202 0 0 0 1.07-1.353 3.624 3.624 0 0 0 .376-1.596c0-.548-.128-1.09-.376-1.597a4.202 4.202 0 0 0-1.07-1.353 5.071 5.071 0 0 0-1.6-.903 5.718 5.718 0 0 0-1.887-.317c-.648 0-1.289.107-1.887.316a5.07 5.07 0 0 0-1.6.904 4.202 4.202 0 0 0-1.07 1.353 3.623 3.623 0 0 0-.377 1.597c0 .548.128 1.09.376 1.596.248.507.612.966 1.07 1.354a5.07 5.07 0 0 0 1.6.903c.6.21 1.24.317 1.888.317Zm67.933-7.321c.76 0 1.384.183 1.872.55.488.368.732.85.732 1.447v20.592c0 .62-.23 1.113-.692 1.48-.46.368-1.071.551-1.83.551-.76 0-1.37-.183-1.832-.55-.461-.368-.692-.861-.692-1.48v-.862c-.597.941-1.465 1.675-2.605 2.203-1.112.528-2.387.792-3.825.792-1.71 0-3.242-.367-4.598-1.101a8 8 0 0 1-3.134-3.1c-.733-1.354-1.099-2.903-1.099-4.648 0-1.744.366-3.27 1.099-4.58a7.833 7.833 0 0 1 3.134-3.03c1.329-.712 2.862-1.068 4.598-1.068 1.438 0 2.713.253 3.826.758 1.085.482 1.976 1.225 2.563 2.135V3.306c0-.574.217-1.033.651-1.377.462-.368 1.072-.551 1.832-.551Zm-7.529 21.384c1.628 0 2.876-.47 3.744-1.413.895-.94 1.343-2.284 1.343-4.028 0-1.745-.448-3.077-1.343-3.994-.868-.942-2.102-1.413-3.703-1.413-1.628 0-2.89.46-3.785 1.378-.895.918-1.343 2.238-1.343 3.96 0 1.745.448 3.099 1.343 4.064.895.964 2.143 1.446 3.744 1.446Zm24.441 3.34c-2.034 0-3.825-.356-5.371-1.068-1.52-.711-2.7-1.732-3.541-3.064-.841-1.332-1.262-2.881-1.262-4.65 0-1.767.42-3.305 1.262-4.613.841-1.332 2.021-2.353 3.54-3.065 1.547-.712 3.338-1.068 5.372-1.068 2.035 0 3.812.356 5.331 1.068 1.523.691 2.759 1.76 3.541 3.065.841 1.308 1.262 2.846 1.262 4.614 0 1.768-.421 3.317-1.262 4.649-.782 1.304-2.018 2.373-3.541 3.064-1.519.711-3.296 1.067-5.33 1.067h-.001Zm-.04-3.34c1.655 0 2.916-.46 3.784-1.378.869-.918 1.303-2.273 1.303-4.063 0-1.768-.434-3.11-1.303-4.029-.868-.941-2.116-1.412-3.744-1.412-1.627 0-2.89.47-3.784 1.412-.868.918-1.303 2.261-1.303 4.029 0 1.79.434 3.145 1.303 4.063.868.918 2.116 1.378 3.744 1.378Zm31.221-14.118c.76 0 1.37.183 1.831.55.462.368.692.861.692 1.48v13.602c0 2.64-.868 4.637-2.604 5.993-1.737 1.354-4.3 2.03-7.692 2.03-2.957 0-5.426-.47-7.406-1.41-1.004-.506-1.506-1.114-1.506-1.826 0-.505.136-.906.407-1.205.298-.299.678-.448 1.139-.448.245 0 .543.046.896.138.352.115.719.242 1.098.379.85.306 1.719.57 2.605.792.787.183 1.682.275 2.686.275 3.554 0 5.331-1.468 5.331-4.408v-2.203c-.597.941-1.465 1.675-2.604 2.204-1.14.505-2.442.757-3.907.757-1.737 0-3.283-.344-4.64-1.032a7.985 7.985 0 0 1-3.133-2.962c-.76-1.263-1.14-2.72-1.14-4.373s.367-3.111 1.099-4.373a7.606 7.606 0 0 1 3.174-2.962c1.357-.712 2.903-1.068 4.64-1.068 1.465 0 2.767.264 3.907.792 1.11.481 2.019 1.238 2.604 2.17v-.896c0-.596.231-1.078.692-1.446.461-.367 1.072-.55 1.831-.55Zm-7.691 13.36c1.628 0 2.889-.448 3.784-1.343.923-.896 1.384-2.123 1.384-3.684 0-1.585-.461-2.824-1.384-3.72-.895-.895-2.156-1.342-3.784-1.342-1.601 0-2.863.447-3.785 1.343-.922.895-1.384 2.135-1.384 3.719 0 1.56.462 2.788 1.384 3.684.922.896 2.184 1.343 3.785 1.343Zm22.686 4.097c-2.957 0-5.344-.493-7.162-1.48-.868-.436-1.302-1.056-1.302-1.86 0-.459.149-.826.447-1.101a1.495 1.495 0 0 1 1.099-.448c.461 0 1.099.184 1.913.551.868.345 1.655.609 2.36.792.733.184 1.655.275 2.767.275 1.14 0 2.022-.16 2.646-.482.651-.322.976-.768.976-1.343 0-.39-.135-.7-.407-.929-.244-.23-.705-.437-1.383-.62-.652-.207-1.655-.436-3.012-.689-2.414-.413-4.151-.998-5.209-1.756-1.031-.757-1.546-1.802-1.546-3.133 0-1.01.352-1.918 1.058-2.721.705-.826 1.668-1.457 2.889-1.894 1.248-.459 2.659-.689 4.232-.689 1.14 0 2.239.127 3.297.38 1.009.211 1.971.56 2.849 1.032.868.459 1.302 1.067 1.302 1.826 0 .458-.149.85-.448 1.17a1.494 1.494 0 0 1-1.099.448c-.298 0-.597-.046-.895-.138-.357-.153-.71-.314-1.058-.482-.787-.344-1.465-.597-2.035-.757-.57-.184-1.275-.276-2.116-.276-1.004 0-1.804.173-2.401.516-.57.344-.855.816-.855 1.412 0 .574.299 1.01.896 1.308.597.3 1.75.598 3.459.896 1.818.322 3.242.688 4.273 1.102 1.031.413 1.763.93 2.197 1.55.462.62.692 1.412.692 2.375 0 1.562-.773 2.813-2.319 3.754-1.52.941-3.555 1.411-6.105 1.411Z" fill="#9C9C9C"/></svg>