<svg width="139" height="42" fill="none" xmlns="http://www.w3.org/2000/svg"><g clip-path="url(#a)"><path d="m23.912 9.059-4.602 23.77h-6.612l1.68-8.583H7.256L5.61 32.829H-1l4.639-23.77h6.575L8.242 19.095h7.122l1.974-10.036h6.575-.001Zm13.561 23.77.22-5.183h-6.1l-1.79 5.183h-6.977l9.388-23.77h12.053l.147 23.77H37.473Zm-1.497-17.993-2.885 8.386h4.785l.401-8.385h-2.301ZM72.783 9.06l-4.603 23.77h-6.612l-4.601-13.007-2.484 13.008H47.87l4.639-23.771h6.794l4.53 12.15 2.373-12.15h6.577Zm15.425 0c3.19 0 5.467.726 6.83 2.179.999 1.1 1.497 2.476 1.497 4.126 0 .595-.06 1.222-.181 1.882l-1.425 7.363c-.487 2.486-1.681 4.478-3.58 5.975-1.9 1.497-4.359 2.245-7.38 2.245H73.34l4.64-23.77h10.228Zm-2.302 5.15h-2.374l-2.593 13.469h3.47c1.144 0 2.033-.276 2.666-.825.658-.573 1.108-1.497 1.35-2.773l1.061-5.414c.092-.437.141-.879.146-1.322 0-2.091-1.241-3.135-3.726-3.135Zm30.206 18.62H97.775l4.641-23.77h18.337l-1.023 5.15h-11.762l-.84 4.457h9.716l-1.022 5.15h-9.717l-.73 3.863h11.762l-1.024 5.15h-.001Zm20.865 0H120.32l4.64-23.77h6.575l-3.616 18.62H138l-1.023 5.15Zm-64.506 4.23h63.543L134.029 42H70.486l1.985-4.94ZM5.95 0h69.5l-1.986 4.94h-69.5L5.95 0Z" fill="#9C9C9C"/></g><defs><clipPath id="a"><path fill="#fff" d="M0 0h139v42H0z"/></clipPath></defs></svg>