<svg width="148" height="30" viewBox="0 0 148 30" fill="none" xmlns="http://www.w3.org/2000/svg">
<path d="M48.624 29.6V0H39.648L20.88 22.84L17.712 19.52C23.376 18.8 26.544 14.64 26.544 10.2C26.544 5.96 23.76 2.4 20.016 1.04C18.144 0.36 15.36 0 11.664 0H0V29.6H8.688V20.04H8.784L16.992 29.6H26.16L29.28 25.32H39.552V29.6H48.624V29.6ZM8.688 14.88V6.64H12.144C15.552 6.64 17.856 8.08 17.856 10.64C17.856 13.36 15.696 14.88 12.096 14.88H8.688ZM39.552 19.32H33.6L39.456 11.12H39.552V19.32ZM85.03 29.6V0H76.342L76.726 18.72L62.902 0H55.078V29.6H63.766L63.526 11.52L77.158 29.6H85.03ZM111.228 29.6V22.96H100.188V17.88H110.892V11.24H100.188V6.64H111.228V0H91.5V29.6H111.228V29.6ZM147.29 29.6L134.762 14.76L146.522 0H137.018L126.986 13.32H126.89V0H117.818V29.6H126.89V16.8H126.986L136.682 29.6H147.29V29.6Z" fill="#9C9C9C"/>
</svg>
