<svg width="52" height="53" fill="none" xmlns="http://www.w3.org/2000/svg"><path d="M47.974 14.416a2 2 0 0 1 2.001-1.997 2 2 0 0 1 2.001 1.997 2 2 0 0 1-2 1.998 2 2 0 0 1-2.002-1.998ZM47.974 2.429A2 2 0 0 1 49.975.431a2 2 0 0 1 2.001 1.998 2 2 0 0 1-2 1.998 2 2 0 0 1-2.002-1.998ZM35.966 38.392a2 2 0 0 1 2.002-1.998 2 2 0 0 1 2 1.998 2 2 0 0 1-2 1.997 2 2 0 0 1-2.002-1.998ZM35.966 26.404a2 2 0 0 1 2.002-1.998 2 2 0 0 1 2 1.998 2 2 0 0 1-2 1.998 2 2 0 0 1-2.002-1.998ZM35.966 14.416a2 2 0 0 1 2.002-1.997 2 2 0 0 1 2 1.997 2 2 0 0 1-2 1.998 2 2 0 0 1-2.002-1.998ZM35.966 2.429A2 2 0 0 1 37.968.431a2 2 0 0 1 2 1.998 2 2 0 0 1-2 1.998 2 2 0 0 1-2.002-1.998ZM24.96 38.392a2 2 0 0 1 2-1.998 2 2 0 0 1 2.002 1.998 2 2 0 0 1-2.001 1.997 2 2 0 0 1-2.002-1.998ZM24.96 26.404a2 2 0 0 1 2-1.998 2 2 0 0 1 2.002 1.998 2 2 0 0 1-2.001 1.998 2 2 0 0 1-2.002-1.998ZM24.96 14.416a2 2 0 0 1 2-1.997 2 2 0 0 1 2.002 1.997 2 2 0 0 1-2.001 1.998 2 2 0 0 1-2.002-1.998ZM24.96 2.429a2 2 0 0 1 2-1.998 2 2 0 0 1 2.002 1.998 2 2 0 0 1-2.001 1.998 2 2 0 0 1-2.002-1.998ZM12.952 50.379a2 2 0 0 1 2.001-1.998 2 2 0 0 1 2.001 1.998 2 2 0 0 1-2 1.998 2 2 0 0 1-2.002-1.998ZM12.952 38.392a2 2 0 0 1 2.001-1.998 2 2 0 0 1 2.001 1.998 2 2 0 0 1-2 1.997 2 2 0 0 1-2.002-1.998ZM12.952 26.404a2 2 0 0 1 2.001-1.998 2 2 0 0 1 2.001 1.998 2 2 0 0 1-2 1.998 2 2 0 0 1-2.002-1.998ZM12.952 14.416a2 2 0 0 1 2.001-1.997 2 2 0 0 1 2.001 1.997 2 2 0 0 1-2 1.998 2 2 0 0 1-2.002-1.998ZM12.952 2.429A2 2 0 0 1 14.953.431a2 2 0 0 1 2.001 1.998 2 2 0 0 1-2 1.998 2 2 0 0 1-2.002-1.998ZM.944 50.379a2 2 0 0 1 2.002-1.998 2 2 0 0 1 2 1.998 2 2 0 0 1-2 1.998 2 2 0 0 1-2.002-1.998ZM.944 38.392a2 2 0 0 1 2.002-1.998 2 2 0 0 1 2 1.998 2 2 0 0 1-2 1.997 2 2 0 0 1-2.002-1.998ZM.944 26.404a2 2 0 0 1 2.002-1.998 2 2 0 0 1 2 1.998 2 2 0 0 1-2 1.998 2 2 0 0 1-2.002-1.998ZM.944 14.416a2 2 0 0 1 2.002-1.997 2 2 0 0 1 2 1.997 2 2 0 0 1-2 1.998 2 2 0 0 1-2.002-1.998ZM.944 2.429A2 2 0 0 1 2.946.431a2 2 0 0 1 2 1.998 2 2 0 0 1-2 1.998A2 2 0 0 1 .944 2.429Z" fill="#E4A30B"/></svg>