<svg width="52" height="52" viewBox="0 0 52 52" fill="none" xmlns="http://www.w3.org/2000/svg">
<path d="M4.07843 14C4.07843 12.8954 3.16544 12 2.03922 12C0.912988 12 0 12.8954 0 14C0 15.1046 0.912988 16 2.03922 16C3.16544 16 4.07843 15.1046 4.07843 14Z" fill="#2E2E2E"/>
<path d="M4.07843 2C4.07843 0.895432 3.16544 0 2.03922 0C0.912988 0 0 0.895432 0 2C0 3.10457 0.912988 4 2.03922 4C3.16544 4 4.07843 3.10457 4.07843 2Z" fill="#2E2E2E"/>
<path d="M16.3137 38C16.3137 36.8954 15.4007 36 14.2745 36C13.1483 36 12.2353 36.8954 12.2353 38C12.2353 39.1046 13.1483 40 14.2745 40C15.4007 40 16.3137 39.1046 16.3137 38Z" fill="#2E2E2E"/>
<path d="M16.3137 26C16.3137 24.8954 15.4007 24 14.2745 24C13.1483 24 12.2353 24.8954 12.2353 26C12.2353 27.1046 13.1483 28 14.2745 28C15.4007 28 16.3137 27.1046 16.3137 26Z" fill="#2E2E2E"/>
<path d="M16.3137 14C16.3137 12.8954 15.4007 12 14.2745 12C13.1483 12 12.2353 12.8954 12.2353 14C12.2353 15.1046 13.1483 16 14.2745 16C15.4007 16 16.3137 15.1046 16.3137 14Z" fill="#2E2E2E"/>
<path d="M16.3137 2C16.3137 0.895432 15.4007 0 14.2745 0C13.1483 0 12.2353 0.895432 12.2353 2C12.2353 3.10457 13.1483 4 14.2745 4C15.4007 4 16.3137 3.10457 16.3137 2Z" fill="#2E2E2E"/>
<path d="M27.5294 38C27.5294 36.8954 26.6164 36 25.4902 36C24.364 36 23.451 36.8954 23.451 38C23.451 39.1046 24.364 40 25.4902 40C26.6164 40 27.5294 39.1046 27.5294 38Z" fill="#2E2E2E"/>
<path d="M27.5294 26C27.5294 24.8954 26.6164 24 25.4902 24C24.364 24 23.451 24.8954 23.451 26C23.451 27.1046 24.364 28 25.4902 28C26.6164 28 27.5294 27.1046 27.5294 26Z" fill="#2E2E2E"/>
<path d="M27.5294 14C27.5294 12.8954 26.6164 12 25.4902 12C24.364 12 23.451 12.8954 23.451 14C23.451 15.1046 24.364 16 25.4902 16C26.6164 16 27.5294 15.1046 27.5294 14Z" fill="#2E2E2E"/>
<path d="M27.5294 2C27.5294 0.895432 26.6164 0 25.4902 0C24.364 0 23.451 0.895432 23.451 2C23.451 3.10457 24.364 4 25.4902 4C26.6164 4 27.5294 3.10457 27.5294 2Z" fill="#2E2E2E"/>
<path d="M39.7647 50C39.7647 48.8954 38.8517 48 37.7255 48C36.5993 48 35.6863 48.8954 35.6863 50C35.6863 51.1046 36.5993 52 37.7255 52C38.8517 52 39.7647 51.1046 39.7647 50Z" fill="#2E2E2E"/>
<path d="M39.7647 38C39.7647 36.8954 38.8517 36 37.7255 36C36.5993 36 35.6863 36.8954 35.6863 38C35.6863 39.1046 36.5993 40 37.7255 40C38.8517 40 39.7647 39.1046 39.7647 38Z" fill="#2E2E2E"/>
<path d="M39.7647 26C39.7647 24.8954 38.8517 24 37.7255 24C36.5993 24 35.6863 24.8954 35.6863 26C35.6863 27.1046 36.5993 28 37.7255 28C38.8517 28 39.7647 27.1046 39.7647 26Z" fill="#2E2E2E"/>
<path d="M39.7647 14C39.7647 12.8954 38.8517 12 37.7255 12C36.5993 12 35.6863 12.8954 35.6863 14C35.6863 15.1046 36.5993 16 37.7255 16C38.8517 16 39.7647 15.1046 39.7647 14Z" fill="#2E2E2E"/>
<path d="M39.7647 2C39.7647 0.895432 38.8517 0 37.7255 0C36.5993 0 35.6863 0.895432 35.6863 2C35.6863 3.10457 36.5993 4 37.7255 4C38.8517 4 39.7647 3.10457 39.7647 2Z" fill="#2E2E2E"/>
<path d="M52 50C52 48.8954 51.087 48 49.9608 48C48.8346 48 47.9216 48.8954 47.9216 50C47.9216 51.1046 48.8346 52 49.9608 52C51.087 52 52 51.1046 52 50Z" fill="#2E2E2E"/>
<path d="M52 38C52 36.8954 51.087 36 49.9608 36C48.8346 36 47.9216 36.8954 47.9216 38C47.9216 39.1046 48.8346 40 49.9608 40C51.087 40 52 39.1046 52 38Z" fill="#2E2E2E"/>
<path d="M52 26C52 24.8954 51.087 24 49.9608 24C48.8346 24 47.9216 24.8954 47.9216 26C47.9216 27.1046 48.8346 28 49.9608 28C51.087 28 52 27.1046 52 26Z" fill="#2E2E2E"/>
<path d="M52 14C52 12.8954 51.087 12 49.9608 12C48.8346 12 47.9216 12.8954 47.9216 14C47.9216 15.1046 48.8346 16 49.9608 16C51.087 16 52 15.1046 52 14Z" fill="#2E2E2E"/>
<path d="M52 2C52 0.895432 51.087 0 49.9608 0C48.8346 0 47.9216 0.895432 47.9216 2C47.9216 3.10457 48.8346 4 49.9608 4C51.087 4 52 3.10457 52 2Z" fill="#2E2E2E"/>
</svg>
