<svg width="52" height="52" fill="none" xmlns="http://www.w3.org/2000/svg"><path d="M47.922 14c0-1.105.913-2 2.039-2 1.126 0 2.039.895 2.039 2s-.913 2-2.04 2c-1.125 0-2.038-.895-2.038-2ZM47.922 2c0-1.105.913-2 2.039-2C51.087 0 52 .895 52 2s-.913 2-2.04 2c-1.125 0-2.038-.895-2.038-2ZM35.686 38c0-1.105.913-2 2.04-2 1.126 0 2.039.895 2.039 2s-.913 2-2.04 2c-1.126 0-2.039-.895-2.039-2ZM35.686 26c0-1.105.913-2 2.04-2 1.126 0 2.039.895 2.039 2s-.913 2-2.04 2c-1.126 0-2.039-.895-2.039-2ZM35.686 14c0-1.105.913-2 2.04-2 1.126 0 2.039.895 2.039 2s-.913 2-2.04 2c-1.126 0-2.039-.895-2.039-2ZM35.686 2c0-1.105.913-2 2.04-2 1.126 0 2.039.895 2.039 2s-.913 2-2.04 2c-1.126 0-2.039-.895-2.039-2ZM24.47 38c0-1.105.914-2 2.04-2s2.039.895 2.039 2-.913 2-2.04 2c-1.125 0-2.038-.895-2.038-2ZM24.47 26c0-1.105.914-2 2.04-2s2.039.895 2.039 2-.913 2-2.04 2c-1.125 0-2.038-.895-2.038-2ZM24.47 14c0-1.105.914-2 2.04-2s2.039.895 2.039 2-.913 2-2.04 2c-1.125 0-2.038-.895-2.038-2ZM24.47 2c0-1.105.914-2 2.04-2s2.039.895 2.039 2-.913 2-2.04 2c-1.125 0-2.038-.895-2.038-2ZM12.235 50c0-1.105.913-2 2.04-2 1.126 0 2.039.895 2.039 2s-.913 2-2.04 2c-1.126 0-2.039-.895-2.039-2ZM12.235 38c0-1.105.913-2 2.04-2 1.126 0 2.039.895 2.039 2s-.913 2-2.04 2c-1.126 0-2.039-.895-2.039-2ZM12.235 26c0-1.105.913-2 2.04-2 1.126 0 2.039.895 2.039 2s-.913 2-2.04 2c-1.126 0-2.039-.895-2.039-2ZM12.235 14c0-1.105.913-2 2.04-2 1.126 0 2.039.895 2.039 2s-.913 2-2.04 2c-1.126 0-2.039-.895-2.039-2ZM12.235 2c0-1.105.913-2 2.04-2 1.126 0 2.039.895 2.039 2s-.913 2-2.04 2c-1.126 0-2.039-.895-2.039-2ZM0 50c0-1.105.913-2 2.04-2 1.125 0 2.038.895 2.038 2s-.913 2-2.039 2C.913 52 0 51.105 0 50ZM0 38c0-1.105.913-2 2.04-2 1.125 0 2.038.895 2.038 2s-.913 2-2.039 2C.913 40 0 39.105 0 38ZM0 26c0-1.105.913-2 2.04-2 1.125 0 2.038.895 2.038 2s-.913 2-2.039 2C.913 28 0 27.105 0 26ZM0 14c0-1.105.913-2 2.04-2 1.125 0 2.038.895 2.038 2s-.913 2-2.039 2C.913 16 0 15.105 0 14ZM0 2C0 .895.913 0 2.04 0c1.125 0 2.038.895 2.038 2S3.165 4 2.04 4C.913 4 0 3.105 0 2Z" fill="gray" fill-opacity=".3"/></svg>