<svg width="52" height="52" viewBox="0 0 52 52" fill="none" xmlns="http://www.w3.org/2000/svg">
<path d="M47.9216 14C47.9216 12.8954 48.8346 12 49.9608 12C51.087 12 52 12.8954 52 14C52 15.1046 51.087 16 49.9608 16C48.8346 16 47.9216 15.1046 47.9216 14Z" fill="#2E2E2E"/>
<path d="M47.9216 2C47.9216 0.89543 48.8346 0 49.9608 0C51.087 0 52 0.89543 52 2C52 3.10457 51.087 4 49.9608 4C48.8346 4 47.9216 3.10457 47.9216 2Z" fill="#2E2E2E"/>
<path d="M35.6863 38C35.6863 36.8954 36.5993 36 37.7255 36C38.8517 36 39.7647 36.8954 39.7647 38C39.7647 39.1046 38.8517 40 37.7255 40C36.5993 40 35.6863 39.1046 35.6863 38Z" fill="#2E2E2E"/>
<path d="M35.6863 26C35.6863 24.8954 36.5993 24 37.7255 24C38.8517 24 39.7647 24.8954 39.7647 26C39.7647 27.1046 38.8517 28 37.7255 28C36.5993 28 35.6863 27.1046 35.6863 26Z" fill="#2E2E2E"/>
<path d="M35.6863 14C35.6863 12.8954 36.5993 12 37.7255 12C38.8517 12 39.7647 12.8954 39.7647 14C39.7647 15.1046 38.8517 16 37.7255 16C36.5993 16 35.6863 15.1046 35.6863 14Z" fill="#2E2E2E"/>
<path d="M35.6863 2C35.6863 0.89543 36.5993 0 37.7255 0C38.8517 0 39.7647 0.89543 39.7647 2C39.7647 3.10457 38.8517 4 37.7255 4C36.5993 4 35.6863 3.10457 35.6863 2Z" fill="#2E2E2E"/>
<path d="M24.4706 38C24.4706 36.8954 25.3836 36 26.5098 36C27.636 36 28.549 36.8954 28.549 38C28.549 39.1046 27.636 40 26.5098 40C25.3836 40 24.4706 39.1046 24.4706 38Z" fill="#2E2E2E"/>
<path d="M24.4706 26C24.4706 24.8954 25.3836 24 26.5098 24C27.636 24 28.549 24.8954 28.549 26C28.549 27.1046 27.636 28 26.5098 28C25.3836 28 24.4706 27.1046 24.4706 26Z" fill="#2E2E2E"/>
<path d="M24.4706 14C24.4706 12.8954 25.3836 12 26.5098 12C27.636 12 28.549 12.8954 28.549 14C28.549 15.1046 27.636 16 26.5098 16C25.3836 16 24.4706 15.1046 24.4706 14Z" fill="#2E2E2E"/>
<path d="M24.4706 2C24.4706 0.89543 25.3836 0 26.5098 0C27.636 0 28.549 0.89543 28.549 2C28.549 3.10457 27.636 4 26.5098 4C25.3836 4 24.4706 3.10457 24.4706 2Z" fill="#2E2E2E"/>
<path d="M12.2353 50C12.2353 48.8954 13.1483 48 14.2745 48C15.4007 48 16.3137 48.8954 16.3137 50C16.3137 51.1046 15.4007 52 14.2745 52C13.1483 52 12.2353 51.1046 12.2353 50Z" fill="#2E2E2E"/>
<path d="M12.2353 38C12.2353 36.8954 13.1483 36 14.2745 36C15.4007 36 16.3137 36.8954 16.3137 38C16.3137 39.1046 15.4007 40 14.2745 40C13.1483 40 12.2353 39.1046 12.2353 38Z" fill="#2E2E2E"/>
<path d="M12.2353 26C12.2353 24.8954 13.1483 24 14.2745 24C15.4007 24 16.3137 24.8954 16.3137 26C16.3137 27.1046 15.4007 28 14.2745 28C13.1483 28 12.2353 27.1046 12.2353 26Z" fill="#2E2E2E"/>
<path d="M12.2353 14C12.2353 12.8954 13.1483 12 14.2745 12C15.4007 12 16.3137 12.8954 16.3137 14C16.3137 15.1046 15.4007 16 14.2745 16C13.1483 16 12.2353 15.1046 12.2353 14Z" fill="#2E2E2E"/>
<path d="M12.2353 2C12.2353 0.89543 13.1483 0 14.2745 0C15.4007 0 16.3137 0.89543 16.3137 2C16.3137 3.10457 15.4007 4 14.2745 4C13.1483 4 12.2353 3.10457 12.2353 2Z" fill="#2E2E2E"/>
<path d="M-2.98023e-06 50C-2.98023e-06 48.8954 0.912985 48 2.03921 48C3.16544 48 4.07843 48.8954 4.07843 50C4.07843 51.1046 3.16544 52 2.03921 52C0.912985 52 -2.98023e-06 51.1046 -2.98023e-06 50Z" fill="#2E2E2E"/>
<path d="M-2.98023e-06 38C-2.98023e-06 36.8954 0.912985 36 2.03921 36C3.16544 36 4.07843 36.8954 4.07843 38C4.07843 39.1046 3.16544 40 2.03921 40C0.912985 40 -2.98023e-06 39.1046 -2.98023e-06 38Z" fill="#2E2E2E"/>
<path d="M-2.98023e-06 26C-2.98023e-06 24.8954 0.912985 24 2.03921 24C3.16544 24 4.07843 24.8954 4.07843 26C4.07843 27.1046 3.16544 28 2.03921 28C0.912985 28 -2.98023e-06 27.1046 -2.98023e-06 26Z" fill="#2E2E2E"/>
<path d="M-2.98023e-06 14C-2.98023e-06 12.8954 0.912985 12 2.03921 12C3.16544 12 4.07843 12.8954 4.07843 14C4.07843 15.1046 3.16544 16 2.03921 16C0.912985 16 -2.98023e-06 15.1046 -2.98023e-06 14Z" fill="#2E2E2E"/>
<path d="M-2.98023e-06 2C-2.98023e-06 0.89543 0.912985 0 2.03921 0C3.16544 0 4.07843 0.89543 4.07843 2C4.07843 3.10457 3.16544 4 2.03921 4C0.912985 4 -2.98023e-06 3.10457 -2.98023e-06 2Z" fill="#2E2E2E"/>
</svg>
