<svg width="52" height="53" viewBox="0 0 52 53" fill="none" xmlns="http://www.w3.org/2000/svg">
<path d="M47.9738 14.4166C47.9738 13.3132 48.8698 12.4187 49.9751 12.4187C51.0803 12.4187 51.9763 13.3132 51.9763 14.4166C51.9763 15.52 51.0803 16.4145 49.9751 16.4145C48.8698 16.4145 47.9738 15.52 47.9738 14.4166Z" fill="#664400"/>
<path d="M47.9738 2.42907C47.9738 1.32565 48.8698 0.431152 49.9751 0.431152C51.0803 0.431152 51.9763 1.32565 51.9763 2.42907C51.9763 3.53249 51.0803 4.42699 49.9751 4.42699C48.8698 4.42699 47.9738 3.53249 47.9738 2.42907Z" fill="#664400"/>
<path d="M35.9663 38.3916C35.9663 37.2882 36.8623 36.3937 37.9676 36.3937C39.0728 36.3937 39.9688 37.2882 39.9688 38.3916C39.9688 39.495 39.0728 40.3895 37.9676 40.3895C36.8623 40.3895 35.9663 39.495 35.9663 38.3916Z" fill="#664400"/>
<path d="M35.9663 26.4041C35.9663 25.3007 36.8623 24.4062 37.9676 24.4062C39.0728 24.4062 39.9688 25.3007 39.9688 26.4041C39.9688 27.5075 39.0728 28.402 37.9676 28.402C36.8623 28.402 35.9663 27.5075 35.9663 26.4041Z" fill="#664400"/>
<path d="M35.9663 14.4166C35.9663 13.3132 36.8623 12.4187 37.9676 12.4187C39.0728 12.4187 39.9688 13.3132 39.9688 14.4166C39.9688 15.52 39.0728 16.4145 37.9676 16.4145C36.8623 16.4145 35.9663 15.52 35.9663 14.4166Z" fill="#664400"/>
<path d="M35.9663 2.42907C35.9663 1.32565 36.8623 0.431152 37.9676 0.431152C39.0728 0.431152 39.9688 1.32565 39.9688 2.42907C39.9688 3.53249 39.0728 4.42699 37.9676 4.42699C36.8623 4.42699 35.9663 3.53249 35.9663 2.42907Z" fill="#664400"/>
<path d="M24.9595 38.3916C24.9595 37.2882 25.8554 36.3937 26.9607 36.3937C28.066 36.3937 28.962 37.2882 28.962 38.3916C28.962 39.495 28.066 40.3895 26.9607 40.3895C25.8554 40.3895 24.9595 39.495 24.9595 38.3916Z" fill="#664400"/>
<path d="M24.9595 26.4041C24.9595 25.3007 25.8554 24.4062 26.9607 24.4062C28.066 24.4062 28.962 25.3007 28.962 26.4041C28.962 27.5075 28.066 28.402 26.9607 28.402C25.8554 28.402 24.9595 27.5075 24.9595 26.4041Z" fill="#664400"/>
<path d="M24.9595 14.4166C24.9595 13.3132 25.8554 12.4187 26.9607 12.4187C28.066 12.4187 28.962 13.3132 28.962 14.4166C28.962 15.52 28.066 16.4145 26.9607 16.4145C25.8554 16.4145 24.9595 15.52 24.9595 14.4166Z" fill="#664400"/>
<path d="M24.9595 2.42907C24.9595 1.32565 25.8554 0.431152 26.9607 0.431152C28.066 0.431152 28.962 1.32565 28.962 2.42907C28.962 3.53249 28.066 4.42699 26.9607 4.42699C25.8554 4.42699 24.9595 3.53249 24.9595 2.42907Z" fill="#664400"/>
<path d="M12.952 50.3791C12.952 49.2757 13.8479 48.3812 14.9532 48.3812C16.0585 48.3812 16.9545 49.2757 16.9545 50.3791C16.9545 51.4825 16.0585 52.377 14.9532 52.377C13.8479 52.377 12.952 51.4825 12.952 50.3791Z" fill="#664400"/>
<path d="M12.952 38.3916C12.952 37.2882 13.8479 36.3937 14.9532 36.3937C16.0585 36.3937 16.9545 37.2882 16.9545 38.3916C16.9545 39.495 16.0585 40.3895 14.9532 40.3895C13.8479 40.3895 12.952 39.495 12.952 38.3916Z" fill="#664400"/>
<path d="M12.952 26.4041C12.952 25.3007 13.8479 24.4062 14.9532 24.4062C16.0585 24.4062 16.9545 25.3007 16.9545 26.4041C16.9545 27.5075 16.0585 28.402 14.9532 28.402C13.8479 28.402 12.952 27.5075 12.952 26.4041Z" fill="#664400"/>
<path d="M12.952 14.4166C12.952 13.3132 13.8479 12.4187 14.9532 12.4187C16.0585 12.4187 16.9545 13.3132 16.9545 14.4166C16.9545 15.52 16.0585 16.4145 14.9532 16.4145C13.8479 16.4145 12.952 15.52 12.952 14.4166Z" fill="#664400"/>
<path d="M12.952 2.42907C12.952 1.32565 13.8479 0.431152 14.9532 0.431152C16.0585 0.431152 16.9545 1.32565 16.9545 2.42907C16.9545 3.53249 16.0585 4.42699 14.9532 4.42699C13.8479 4.42699 12.952 3.53249 12.952 2.42907Z" fill="#664400"/>
<path d="M0.944458 50.3791C0.944458 49.2757 1.84045 48.3812 2.94571 48.3812C4.05097 48.3812 4.94696 49.2757 4.94696 50.3791C4.94696 51.4825 4.05097 52.377 2.94571 52.377C1.84045 52.377 0.944458 51.4825 0.944458 50.3791Z" fill="#664400"/>
<path d="M0.944458 38.3916C0.944458 37.2882 1.84045 36.3937 2.94571 36.3937C4.05097 36.3937 4.94696 37.2882 4.94696 38.3916C4.94696 39.495 4.05097 40.3895 2.94571 40.3895C1.84045 40.3895 0.944458 39.495 0.944458 38.3916Z" fill="#664400"/>
<path d="M0.944458 26.4041C0.944458 25.3007 1.84045 24.4062 2.94571 24.4062C4.05097 24.4062 4.94696 25.3007 4.94696 26.4041C4.94696 27.5075 4.05097 28.402 2.94571 28.402C1.84045 28.402 0.944458 27.5075 0.944458 26.4041Z" fill="#664400"/>
<path d="M0.944458 14.4166C0.944458 13.3132 1.84045 12.4187 2.94571 12.4187C4.05097 12.4187 4.94696 13.3132 4.94696 14.4166C4.94696 15.52 4.05097 16.4145 2.94571 16.4145C1.84045 16.4145 0.944458 15.52 0.944458 14.4166Z" fill="#664400"/>
<path d="M0.944458 2.42907C0.944458 1.32565 1.84045 0.431152 2.94571 0.431152C4.05097 0.431152 4.94696 1.32565 4.94696 2.42907C4.94696 3.53249 4.05097 4.42699 2.94571 4.42699C1.84045 4.42699 0.944458 3.53249 0.944458 2.42907Z" fill="#664400"/>
</svg>
