<svg width="51" height="52" viewBox="0 0 51 52" fill="none" xmlns="http://www.w3.org/2000/svg">
<path d="M47 38C47 39.1046 47.8954 40 49 40C50.1046 40 51 39.1046 51 38C51 36.8954 50.1046 36 49 36C47.8954 36 47 36.8954 47 38Z" fill="#2E2E2E"/>
<path d="M47 50C47 51.1046 47.8954 52 49 52C50.1046 52 51 51.1046 51 50C51 48.8954 50.1046 48 49 48C47.8954 48 47 48.8954 47 50Z" fill="#2E2E2E"/>
<path d="M35 14C35 15.1046 35.8954 16 37 16C38.1046 16 39 15.1046 39 14C39 12.8954 38.1046 12 37 12C35.8954 12 35 12.8954 35 14Z" fill="#2E2E2E"/>
<path d="M35 26C35 27.1046 35.8954 28 37 28C38.1046 28 39 27.1046 39 26C39 24.8954 38.1046 24 37 24C35.8954 24 35 24.8954 35 26Z" fill="#2E2E2E"/>
<path d="M35 38C35 39.1046 35.8954 40 37 40C38.1046 40 39 39.1046 39 38C39 36.8954 38.1046 36 37 36C35.8954 36 35 36.8954 35 38Z" fill="#2E2E2E"/>
<path d="M35 50C35 51.1046 35.8954 52 37 52C38.1046 52 39 51.1046 39 50C39 48.8954 38.1046 48 37 48C35.8954 48 35 48.8954 35 50Z" fill="#2E2E2E"/>
<path d="M24 14C24 15.1046 24.8954 16 26 16C27.1046 16 28 15.1046 28 14C28 12.8954 27.1046 12 26 12C24.8954 12 24 12.8954 24 14Z" fill="#2E2E2E"/>
<path d="M24 26C24 27.1046 24.8954 28 26 28C27.1046 28 28 27.1046 28 26C28 24.8954 27.1046 24 26 24C24.8954 24 24 24.8954 24 26Z" fill="#2E2E2E"/>
<path d="M24 38C24 39.1046 24.8954 40 26 40C27.1046 40 28 39.1046 28 38C28 36.8954 27.1046 36 26 36C24.8954 36 24 36.8954 24 38Z" fill="#2E2E2E"/>
<path d="M24 50C24 51.1046 24.8954 52 26 52C27.1046 52 28 51.1046 28 50C28 48.8954 27.1046 48 26 48C24.8954 48 24 48.8954 24 50Z" fill="#2E2E2E"/>
<path d="M12 2C12 3.10457 12.8954 4 14 4C15.1046 4 16 3.10457 16 2C16 0.89543 15.1046 0 14 0C12.8954 0 12 0.89543 12 2Z" fill="#2E2E2E"/>
<path d="M12 14C12 15.1046 12.8954 16 14 16C15.1046 16 16 15.1046 16 14C16 12.8954 15.1046 12 14 12C12.8954 12 12 12.8954 12 14Z" fill="#2E2E2E"/>
<path d="M12 26C12 27.1046 12.8954 28 14 28C15.1046 28 16 27.1046 16 26C16 24.8954 15.1046 24 14 24C12.8954 24 12 24.8954 12 26Z" fill="#2E2E2E"/>
<path d="M12 38C12 39.1046 12.8954 40 14 40C15.1046 40 16 39.1046 16 38C16 36.8954 15.1046 36 14 36C12.8954 36 12 36.8954 12 38Z" fill="#2E2E2E"/>
<path d="M12 50C12 51.1046 12.8954 52 14 52C15.1046 52 16 51.1046 16 50C16 48.8954 15.1046 48 14 48C12.8954 48 12 48.8954 12 50Z" fill="#2E2E2E"/>
<path d="M0 2C0 3.10457 0.89543 4 2 4C3.10457 4 4 3.10457 4 2C4 0.89543 3.10457 0 2 0C0.89543 0 0 0.89543 0 2Z" fill="#2E2E2E"/>
<path d="M0 14C0 15.1046 0.89543 16 2 16C3.10457 16 4 15.1046 4 14C4 12.8954 3.10457 12 2 12C0.89543 12 0 12.8954 0 14Z" fill="#2E2E2E"/>
<path d="M0 26C0 27.1046 0.89543 28 2 28C3.10457 28 4 27.1046 4 26C4 24.8954 3.10457 24 2 24C0.89543 24 0 24.8954 0 26Z" fill="#2E2E2E"/>
<path d="M0 38C0 39.1046 0.89543 40 2 40C3.10457 40 4 39.1046 4 38C4 36.8954 3.10457 36 2 36C0.89543 36 0 36.8954 0 38Z" fill="#2E2E2E"/>
<path d="M0 50C0 51.1046 0.89543 52 2 52C3.10457 52 4 51.1046 4 50C4 48.8954 3.10457 48 2 48C0.89543 48 0 48.8954 0 50Z" fill="#2E2E2E"/>
</svg>
