<svg width="52" height="52" fill="none" xmlns="http://www.w3.org/2000/svg"><path d="M4.516 37.96a2 2 0 0 1-2.002 1.998 2 2 0 0 1-2-1.997 2 2 0 0 1 2-1.998 2 2 0 0 1 2.002 1.998ZM4.516 49.948a2 2 0 0 1-2.002 1.998 2 2 0 0 1-2-1.998 2 2 0 0 1 2-1.998 2 2 0 0 1 2.002 1.998ZM16.523 13.985a2 2 0 0 1-2.001 1.998 2 2 0 0 1-2.001-1.998 2 2 0 0 1 2-1.997 2 2 0 0 1 2.002 1.997ZM16.523 25.973a2 2 0 0 1-2.001 1.998 2 2 0 0 1-2.001-1.998 2 2 0 0 1 2-1.998 2 2 0 0 1 2.002 1.998ZM16.523 37.96a2 2 0 0 1-2.001 1.998 2 2 0 0 1-2.001-1.997 2 2 0 0 1 2-1.998 2 2 0 0 1 2.002 1.998ZM16.523 49.948a2 2 0 0 1-2.001 1.998 2 2 0 0 1-2.001-1.998 2 2 0 0 1 2-1.998 2 2 0 0 1 2.002 1.998ZM27.53 13.985a2 2 0 0 1-2.001 1.998 2 2 0 0 1-2.002-1.998 2 2 0 0 1 2.002-1.997 2 2 0 0 1 2.001 1.997ZM27.53 25.973a2 2 0 0 1-2.001 1.998 2 2 0 0 1-2.002-1.998 2 2 0 0 1 2.002-1.998 2 2 0 0 1 2.001 1.998ZM27.53 37.96a2 2 0 0 1-2.001 1.998 2 2 0 0 1-2.002-1.997 2 2 0 0 1 2.002-1.998 2 2 0 0 1 2.001 1.998ZM27.53 49.948a2 2 0 0 1-2.001 1.998 2 2 0 0 1-2.002-1.998 2 2 0 0 1 2.002-1.998 2 2 0 0 1 2.001 1.998ZM39.538 1.998a2 2 0 0 1-2.002 1.998 2 2 0 0 1-2.001-1.998A2 2 0 0 1 37.536 0a2 2 0 0 1 2.002 1.998ZM39.538 13.985a2 2 0 0 1-2.002 1.998 2 2 0 0 1-2.001-1.998 2 2 0 0 1 2.001-1.997 2 2 0 0 1 2.002 1.997ZM39.538 25.973a2 2 0 0 1-2.002 1.998 2 2 0 0 1-2.001-1.998 2 2 0 0 1 2.001-1.998 2 2 0 0 1 2.002 1.998ZM39.538 37.96a2 2 0 0 1-2.002 1.998 2 2 0 0 1-2.001-1.997 2 2 0 0 1 2.001-1.998 2 2 0 0 1 2.002 1.998ZM39.538 49.948a2 2 0 0 1-2.002 1.998 2 2 0 0 1-2.001-1.998 2 2 0 0 1 2.001-1.998 2 2 0 0 1 2.002 1.998ZM51.545 1.998a2 2 0 0 1-2.001 1.998 2 2 0 0 1-2.002-1.998A2 2 0 0 1 49.544 0a2 2 0 0 1 2.001 1.998ZM51.545 13.985a2 2 0 0 1-2.001 1.998 2 2 0 0 1-2.002-1.998 2 2 0 0 1 2.002-1.997 2 2 0 0 1 2.001 1.997ZM51.545 25.973a2 2 0 0 1-2.001 1.998 2 2 0 0 1-2.002-1.998 2 2 0 0 1 2.002-1.998 2 2 0 0 1 2.001 1.998ZM51.545 37.96a2 2 0 0 1-2.001 1.998 2 2 0 0 1-2.002-1.997 2 2 0 0 1 2.002-1.998 2 2 0 0 1 2.001 1.998ZM51.545 49.948a2 2 0 0 1-2.001 1.998 2 2 0 0 1-2.002-1.998 2 2 0 0 1 2.002-1.998 2 2 0 0 1 2.001 1.998Z" fill="#E4A30B"/></svg>