<svg width="52" height="52" viewBox="0 0 52 52" fill="none" xmlns="http://www.w3.org/2000/svg">
<path d="M47.0294 38C47.0294 39.1046 47.9254 40 49.0306 40C50.1359 40 51.0319 39.1046 51.0319 38C51.0319 36.8954 50.1359 36 49.0306 36C47.9254 36 47.0294 36.8954 47.0294 38Z" fill="#595959"/>
<path d="M47.0294 50C47.0294 51.1046 47.9254 52 49.0306 52C50.1359 52 51.0319 51.1046 51.0319 50C51.0319 48.8954 50.1359 48 49.0306 48C47.9254 48 47.0294 48.8954 47.0294 50Z" fill="#595959"/>
<path d="M35.0219 14C35.0219 15.1046 35.9179 16 37.0231 16C38.1284 16 39.0244 15.1046 39.0244 14C39.0244 12.8954 38.1284 12 37.0231 12C35.9179 12 35.0219 12.8954 35.0219 14Z" fill="#595959"/>
<path d="M35.0219 26C35.0219 27.1046 35.9179 28 37.0231 28C38.1284 28 39.0244 27.1046 39.0244 26C39.0244 24.8954 38.1284 24 37.0231 24C35.9179 24 35.0219 24.8954 35.0219 26Z" fill="#595959"/>
<path d="M35.0219 38C35.0219 39.1046 35.9179 40 37.0231 40C38.1284 40 39.0244 39.1046 39.0244 38C39.0244 36.8954 38.1284 36 37.0231 36C35.9179 36 35.0219 36.8954 35.0219 38Z" fill="#595959"/>
<path d="M35.0219 50C35.0219 51.1046 35.9179 52 37.0231 52C38.1284 52 39.0244 51.1046 39.0244 50C39.0244 48.8954 38.1284 48 37.0231 48C35.9179 48 35.0219 48.8954 35.0219 50Z" fill="#595959"/>
<path d="M24.015 14C24.015 15.1046 24.911 16 26.0163 16C27.1215 16 28.0175 15.1046 28.0175 14C28.0175 12.8954 27.1215 12 26.0163 12C24.911 12 24.015 12.8954 24.015 14Z" fill="#595959"/>
<path d="M24.015 26C24.015 27.1046 24.911 28 26.0163 28C27.1215 28 28.0175 27.1046 28.0175 26C28.0175 24.8954 27.1215 24 26.0163 24C24.911 24 24.015 24.8954 24.015 26Z" fill="#595959"/>
<path d="M24.015 38C24.015 39.1046 24.911 40 26.0163 40C27.1215 40 28.0175 39.1046 28.0175 38C28.0175 36.8954 27.1215 36 26.0163 36C24.911 36 24.015 36.8954 24.015 38Z" fill="#595959"/>
<path d="M24.015 50C24.015 51.1046 24.911 52 26.0163 52C27.1215 52 28.0175 51.1046 28.0175 50C28.0175 48.8954 27.1215 48 26.0163 48C24.911 48 24.015 48.8954 24.015 50Z" fill="#595959"/>
<path d="M12.0075 2C12.0075 3.10457 12.9035 4 14.0088 4C15.114 4 16.01 3.10457 16.01 2C16.01 0.89543 15.114 0 14.0088 0C12.9035 0 12.0075 0.89543 12.0075 2Z" fill="#595959"/>
<path d="M12.0075 14C12.0075 15.1046 12.9035 16 14.0088 16C15.114 16 16.01 15.1046 16.01 14C16.01 12.8954 15.114 12 14.0088 12C12.9035 12 12.0075 12.8954 12.0075 14Z" fill="#595959"/>
<path d="M12.0075 26C12.0075 27.1046 12.9035 28 14.0088 28C15.114 28 16.01 27.1046 16.01 26C16.01 24.8954 15.114 24 14.0088 24C12.9035 24 12.0075 24.8954 12.0075 26Z" fill="#595959"/>
<path d="M12.0075 38C12.0075 39.1046 12.9035 40 14.0088 40C15.114 40 16.01 39.1046 16.01 38C16.01 36.8954 15.114 36 14.0088 36C12.9035 36 12.0075 36.8954 12.0075 38Z" fill="#595959"/>
<path d="M12.0075 50C12.0075 51.1046 12.9035 52 14.0088 52C15.114 52 16.01 51.1046 16.01 50C16.01 48.8954 15.114 48 14.0088 48C12.9035 48 12.0075 48.8954 12.0075 50Z" fill="#595959"/>
<path d="M0 2C0 3.10457 0.895988 4 2.00125 4C3.10651 4 4.0025 3.10457 4.0025 2C4.0025 0.89543 3.10651 0 2.00125 0C0.895988 0 0 0.89543 0 2Z" fill="#595959"/>
<path d="M0 14C0 15.1046 0.895988 16 2.00125 16C3.10651 16 4.0025 15.1046 4.0025 14C4.0025 12.8954 3.10651 12 2.00125 12C0.895988 12 0 12.8954 0 14Z" fill="#595959"/>
<path d="M0 26C0 27.1046 0.895988 28 2.00125 28C3.10651 28 4.0025 27.1046 4.0025 26C4.0025 24.8954 3.10651 24 2.00125 24C0.895988 24 0 24.8954 0 26Z" fill="#595959"/>
<path d="M0 38C0 39.1046 0.895988 40 2.00125 40C3.10651 40 4.0025 39.1046 4.0025 38C4.0025 36.8954 3.10651 36 2.00125 36C0.895988 36 0 36.8954 0 38Z" fill="#595959"/>
<path d="M0 50C0 51.1046 0.895988 52 2.00125 52C3.10651 52 4.0025 51.1046 4.0025 50C4.0025 48.8954 3.10651 48 2.00125 48C0.895988 48 0 48.8954 0 50Z" fill="#595959"/>
</svg>
