<svg width="16" height="16" fill="none" xmlns="http://www.w3.org/2000/svg"><path d="M12 5.285C12 4.58 11.418 4 10.706 4H9.413a.647.647 0 0 0-.648.642c0 .354.291.643.648.643h1.293V6.99L8.455 9.786H6.177V7.214a.647.647 0 0 0-.647-.643H3.588a2.602 2.602 0 0 0-1.83.753A2.57 2.57 0 0 0 1 9.143v1.285c0 .354.291.643.647.643h.647c0 1.068.867 1.929 1.94 1.929a1.932 1.932 0 0 0 1.942-1.929h2.278c.395 0 .763-.18 1.009-.482l2.252-2.796c.187-.232.284-.515.284-.804V5.285H12Zm-7.764 6.43a.643.643 0 0 1-.646-.643h1.293a.647.647 0 0 1-.647.643Z" fill="#9C9C9C"/><path d="M3.647 5h1.941c.356 0 .647.277.647.616 0 .338-.29.615-.646.615H3.647a.666.666 0 0 1-.457-.181.603.603 0 0 1-.19-.434c0-.34.291-.616.647-.616Zm8.412 4.307c-1.074 0-1.94.826-1.94 1.847 0 1.022.866 1.846 1.94 1.846C13.133 13 14 12.176 14 11.154c0-1.021-.867-1.847-1.94-1.847Zm0 2.462a.666.666 0 0 1-.457-.18.603.603 0 0 1-.19-.435c0-.338.291-.615.647-.615.356 0 .647.277.647.615 0 .338-.29.615-.647.615Z" fill="#9C9C9C"/></svg>