<svg width="18" height="11" viewBox="0 0 18 11" fill="none" xmlns="http://www.w3.org/2000/svg">
<path d="M17 5.5L17.7071 6.20711C18.0976 5.81658 18.0976 5.18342 17.7071 4.79289L17 5.5ZM13.2071 0.292893C12.8166 -0.0976311 12.1834 -0.0976311 11.7929 0.292893C11.4024 0.683418 11.4024 1.31658 11.7929 1.70711L13.2071 0.292893ZM11.7929 9.29289C11.4024 9.68342 11.4024 10.3166 11.7929 10.7071C12.1834 11.0976 12.8166 11.0976 13.2071 10.7071L11.7929 9.29289ZM1.5 4.5C0.947715 4.5 0.5 4.94772 0.5 5.5C0.5 6.05228 0.947715 6.5 1.5 6.5V4.5ZM17.7071 4.79289L13.2071 0.292893L11.7929 1.70711L16.2929 6.20711L17.7071 4.79289ZM16.2929 4.79289L11.7929 9.29289L13.2071 10.7071L17.7071 6.20711L16.2929 4.79289ZM1.5 6.5H17V4.5H1.5V6.5Z" fill="black"/>
</svg>
