<svg width="136" height="32" viewBox="0 0 136 32" fill="none" xmlns="http://www.w3.org/2000/svg">
<path d="M5.04 12.196C5.688 11.236 6.576 10.456 7.704 9.856C8.856 9.256 10.164 8.956 11.628 8.956C13.332 8.956 14.868 9.376 16.236 10.216C17.628 11.056 18.72 12.256 19.512 13.816C20.328 15.352 20.736 17.14 20.736 19.18C20.736 21.22 20.328 23.032 19.512 24.616C18.72 26.176 17.628 27.388 16.236 28.252C14.868 29.116 13.332 29.548 11.628 29.548C10.14 29.548 8.832 29.26 7.704 28.684C6.6 28.084 5.712 27.316 5.04 26.38V29.224H0V2.584H5.04V12.196ZM15.588 19.18C15.588 17.98 15.336 16.948 14.832 16.084C14.352 15.196 13.704 14.524 12.888 14.068C12.1004 13.6131 11.2055 13.377 10.296 13.384C9.384 13.384 8.52 13.624 7.704 14.104C6.912 14.56 6.264 15.232 5.76 16.12C5.28 17.008 5.04 18.052 5.04 19.252C5.04 20.452 5.28 21.496 5.76 22.384C6.264 23.272 6.912 23.956 7.704 24.436C8.52 24.892 9.384 25.12 10.296 25.12C11.232 25.12 12.096 24.88 12.888 24.4C13.704 23.92 14.352 23.236 14.832 22.348C15.336 21.46 15.588 20.404 15.588 19.18ZM26.954 6.904C26.066 6.904 25.322 6.628 24.722 6.076C24.146 5.5 23.858 4.792 23.858 3.952C23.858 3.112 24.146 2.416 24.722 1.864C25.322 1.288 26.066 1 26.954 1C27.842 1 28.574 1.288 29.15 1.864C29.75 2.416 30.05 3.112 30.05 3.952C30.05 4.792 29.75 5.5 29.15 6.076C28.574 6.628 27.842 6.904 26.954 6.904ZM29.438 9.28V29.224H24.398V9.28H29.438ZM46.226 29.224L39.458 20.728V29.224H34.418V2.584H39.458V17.74L46.154 9.28H52.706L43.922 19.288L52.778 29.224H46.226ZM53.145 19.252C53.145 17.188 53.565 15.388 54.405 13.852C55.245 12.292 56.409 11.092 57.897 10.252C59.385 9.388 61.089 8.956 63.009 8.956C65.481 8.956 67.521 9.58 69.129 10.828C70.761 12.052 71.853 13.78 72.405 16.012H66.97C66.682 15.148 66.19 14.476 65.494 13.996C64.822 13.492 63.982 13.24 62.974 13.24C61.534 13.24 60.394 13.768 59.554 14.824C58.714 15.856 58.294 17.332 58.294 19.252C58.294 21.148 58.714 22.624 59.554 23.68C60.394 24.712 61.534 25.228 62.974 25.228C65.014 25.228 66.346 24.316 66.97 22.492H72.406C71.854 24.652 70.762 26.368 69.13 27.64C67.498 28.912 65.458 29.548 63.01 29.548C61.09 29.548 59.386 29.128 57.898 28.288C56.4218 27.4362 55.2125 26.1895 54.406 24.688C53.566 23.128 53.146 21.316 53.146 19.252H53.145ZM80.138 12.376C80.756 11.3495 81.6227 10.4952 82.658 9.892C83.714 9.292 84.914 8.992 86.258 8.992V14.284H84.926C83.342 14.284 82.142 14.656 81.326 15.4C80.534 16.144 80.138 17.44 80.138 19.288V29.224H75.098V9.28H80.138V12.376ZM101.712 26.38C101.16 27.292 100.26 28.06 99.012 28.684C97.764 29.284 96.42 29.584 94.98 29.584C93.732 29.584 92.604 29.332 91.596 28.828C90.588 28.324 89.796 27.628 89.22 26.74C88.644 25.852 88.356 24.832 88.356 23.68C88.356 21.832 89.04 20.32 90.408 19.144C91.8 17.968 93.876 17.38 96.636 17.38H101.712C101.664 16.108 101.292 15.1 100.596 14.356C99.924 13.588 98.988 13.204 97.788 13.204C96.732 13.204 95.856 13.492 95.16 14.068C94.464 14.62 94.02 15.4 93.828 16.408H88.788C89.028 14.968 89.544 13.684 90.336 12.556C91.1449 11.41 92.2362 10.4923 93.504 9.892C94.824 9.244 96.3 8.92 97.932 8.92C99.612 8.92 101.124 9.268 102.468 9.964C103.803 10.6289 104.916 11.6669 105.672 12.952C106.44 14.248 106.824 15.772 106.824 17.524V29.224H101.712V26.38ZM96.456 25.516C97.296 25.516 98.112 25.336 98.904 24.976C99.72 24.616 100.392 24.076 100.92 23.356C101.448 22.636 101.712 21.784 101.712 20.8V20.656H96.924C95.772 20.656 94.908 20.884 94.332 21.34C93.78 21.796 93.504 22.396 93.504 23.14C93.504 23.86 93.756 24.436 94.26 24.868C94.788 25.3 95.52 25.516 96.456 25.516ZM117.453 13.42V29.224H112.341V13.42H110.073V9.28H112.341V8.272C112.341 5.824 113.037 4.024 114.429 2.872C115.821 1.72 117.921 1.18 120.729 1.252V5.5C119.505 5.476 118.653 5.68 118.173 6.112C117.693 6.544 117.453 7.324 117.453 8.452V9.28H124.003V4.348H129.079V9.28H133.543V13.42H129.079V23.068C129.079 23.74 129.235 24.232 129.547 24.544C129.883 24.832 130.435 24.976 131.203 24.976H133.543V29.224H130.375C126.127 29.224 124.003 27.16 124.003 23.032V13.42H117.453Z" fill="#F7F7F7"/>
</svg>
